<!DOCTYPE svg PUBLIC "-//W3C//DTD SVG 20010904//EN" "http://www.w3.org/TR/2001/REC-SVG-20010904/DTD/svg10.dtd">
<svg version="1.0" xmlns="http://www.w3.org/2000/svg" width="512px" height="512px" viewBox="0 0 5120 5120" preserveAspectRatio="xMidYMid meet">
<g id="layer101" fill="#61a132" stroke="none">
<path d="M1880 3287 c-14 -7 -33 -28 -42 -48 -18 -35 -17 -37 62 -432 43 -218 83 -405 89 -414 5 -10 390 -398 855 -863 l846 -845 372 373 373 372 -855 855 -855 855 -400 80 c-219 44 -404 80 -410 80 -5 0 -21 -6 -35 -13z"/>
<path d="M4295 825 l-369 -377 179 -177 c191 -187 245 -225 360 -251 78 -18 202 -13 275 9 111 34 227 119 287 210 106 159 116 367 26 546 -17 34 -84 109 -207 233 l-182 184 -369 -377z"/>
</g>
<g id="layer102" fill="#597481" stroke="none">
<path d="M522 5105 c-234 -43 -428 -225 -499 -470 -16 -56 -18 -167 -21 -1580 -2 -1004 1 -1553 7 -1617 13 -117 45 -206 107 -299 76 -114 204 -209 339 -252 l70 -22 947 0 946 0 44 30 c134 95 118 282 -32 361 -33 18 -81 19 -950 24 -843 5 -917 6 -947 22 -45 25 -89 83 -102 134 -8 30 -11 499 -11 1557 0 1659 -3 1566 58 1630 15 16 45 39 67 50 l40 22 1520 3 c1077 2 1533 0 1565 -8 61 -15 112 -52 141 -103 l24 -42 5 -915 5 -915 28 -47 c30 -52 88 -92 149 -103 54 -10 137 17 175 57 68 72 64 -3 61 1045 l-3 948 -27 73 c-35 96 -96 189 -170 257 -74 69 -140 107 -243 143 l-80 27 -1570 2 c-1271 1 -1584 -1 -1643 -12z"/>
</g>
</svg>